<svg width="862" height="111" viewBox="0 0 862 111" fill="none" xmlns="http://www.w3.org/2000/svg">
<g clip-path="url(#clip0_2_9)">
<path d="M138.2 109.05C131.37 109.04 124.45 109.01 117.45 108.99C105.19 108.95 92.7 108.91 80.08 108.91L21.7 109.06V101.98L80.66 75.41L138.21 53.43C138.25 61.07 138.21 69.98 138.19 79.37C138.16 89.6 138.12 100.16 138.19 109.06L138.2 109.05Z" fill="#007D32"/>
<path d="M21.73 58.19C21.69 50.55 21.73 41.64 21.75 32.25C21.78 22.02 21.82 11.46 21.75 2.56C28.58 2.57 35.5 2.6 42.5 2.62C54.76 2.66 67.25 2.7 79.87 2.7L138.25 2.55V9.63L21.73 58.19Z" fill="#FFE400"/>
<path d="M153.59 27.95C143.43 31.02 133.29 34.31 123.19 37.82L121.53 33.04C131.69 29.52 141.88 26.21 152.1 23.13L153.59 27.95ZM114.2 41C104.22 44.59 94.27 48.38 84.34 52.37L82.47 47.66C92.45 43.66 102.46 39.84 112.49 36.24L114.2 41.01V41ZM75.52 55.96C65.73 60.01 55.96 64.23 46.21 68.63L44.14 64.01C53.94 59.59 63.76 55.34 73.6 51.27L75.52 55.96V55.96ZM37.55 72.58C27.93 77.02 18.34 81.62 8.77 86.36L6.5 81.84C16.12 77.07 25.76 72.44 35.43 67.98L37.55 72.58V72.58ZM157.79 1.08C156.23 -0.109999 153.74 -0.259999 151.78 0.350001C147.74 1.6 143.83 2.93 140.06 4.11L139.99 4.13V0.810001L79.86 0.960001C59.42 0.960001 39.33 0.850001 19.99 0.810001C20.11 15.91 19.94 36.25 19.96 52.43L17.78 53.48C13.47 55.34 9.13 57.7 4.54 59.73C3.95 59.99 3.4 60.17 2.88 60.46C1.48 61.26 0.129999 62.9 0.149999 65.05C0.149999 66.48 0.749999 67.74 1.37 68.71C1.95 69.62 2.73 70.67 4.01 70.96C5.61 71.33 6.81 70.71 7.82 70.23C14.46 67.08 21.16 64.02 27.75 60.95C42.09 54.27 56.07 48 70.68 41.66C85.34 35.3 100.01 29.76 115.46 24.23C123.11 21.49 130.84 18.72 138.51 16.27C143.73 14.6 149.25 12.77 154.53 10.95C155.04 10.77 155.58 10.7 156.04 10.51C157.82 9.78 159.48 8.56 159.9 6.55C160.38 4.25 159.19 2.15 157.8 1.08H157.79ZM23.52 4.31C29.76 4.33 136.5 4.31 136.5 4.31V5.26L136.28 5.33C129.02 7.79 121.76 10.39 114.47 12.93C101.93 17.31 89.35 21.95 77.26 26.99C58.97 34.62 41.12 42.67 23.46 50.79C23.46 45.01 23.56 12.81 23.52 4.29V4.31ZM159.65 44.01C159.08 41.27 157.18 39.63 153.59 39.66C153.1 39.72 152.32 39.75 151.78 39.9C151.05 40.11 150.3 40.37 149.63 40.58C149.02 40.78 148.31 41.02 147.58 41.26C145.69 41.9 143.78 42.47 141.82 43.26C128.83 47.45 115.47 52.26 102.56 56.93C96.08 59.28 89.75 61.62 83.37 64.16C77.01 66.69 70.8 69.34 64.62 72.07C60.51 73.88 56.39 75.66 52.31 77.49C46.96 79.9 41.63 82.35 36.29 84.77C27.14 88.92 17.79 93.15 8.84 97.37C7.04 98.22 4.75 99.14 2.98 100.06C1.17 101 -0.310001 102.92 0.0499989 105.63C0.259999 107.23 1.05 108.54 1.95 109.49C2.94 110.53 4.48 111.13 6.25 110.61C6.86 110.43 7.5 109.98 8.15 109.68C10.85 108.45 13.34 107.19 16.01 106.07C16.39 105.91 18.34 105.03 19.95 104.29V110.8L80.08 110.65C100.52 110.65 120.61 110.76 139.95 110.8C139.82 94.48 140.03 72.04 139.97 55.35H140C142.55 54.57 145.15 53.52 147.81 52.69C149.1 52.29 150.47 51.95 151.77 51.47C155.39 50.12 160.72 49.27 159.63 44L159.65 44.01ZM136.46 79.36C136.43 88.93 136.4 98.78 136.44 107.3C130.19 107.28 123.87 107.26 117.49 107.24C105.31 107.2 92.72 107.16 80.08 107.16L23.46 107.3V102.7C31.8 98.88 40.27 95.05 48.64 91.23C59.27 86.5 69.98 81.66 80.87 77.17C98.81 69.77 117.62 63.12 136.49 56.56C136.49 63.4 136.47 72.33 136.45 79.36H136.46Z" fill="#1D1D1B"/>
</g>
<g clip-path="url(#clip1_2_9)">
<path d="M353.08 51.9054H362.147C371.731 51.9054 376.696 49.7846 376.696 38.9643C376.696 34.8525 375.962 32.4721 374.321 31.0005C372.81 29.6155 370.608 29.2693 366.852 29.2693H353.037V51.9487L353.08 51.9054ZM368.018 12C375.962 12 382.956 13.2552 388.18 16.6311C393.792 20.2667 397.635 25.9799 397.635 36.5838C397.635 48.4429 392.929 57.4021 381.445 60.3885C392.281 62.3795 395.476 72.9834 398.109 98.0433H376.955C373.846 74.8445 372.119 68.8717 364.392 68.8717H353.08V98.0433H332.919V12H367.975H368.018ZM573.822 98H597.61L563.763 50.3473L595.365 12H571.361L544.853 46.7116V12H524.692V98H544.853V73.2431L550.984 65.7987L573.779 98H573.822ZM223.087 98H246.875L213.028 50.3473L244.631 12H220.627L194.162 46.7116V12H174V98H194.162V73.2431L200.292 65.7987L223.087 98V98ZM819.216 54.3724H830.916C834.888 54.3724 837.262 53.6366 838.773 52.1218C840.629 50.3905 841.148 47.0146 841.148 41.9074C841.148 35.545 840.155 32.6885 838.428 31.1736C836.701 29.6588 834.326 29.3125 830.484 29.3125H819.302V54.3724H819.216ZM831.909 12C839.723 12 847.192 13.385 852.675 17.6266C858.287 21.998 862 28.9663 862 41.5611C862 54.156 858.632 61.384 852.804 65.9718C847.58 70.0835 840.629 71.7282 831.434 71.7282H819.259V98.0433H799.097V12H831.909V12ZM782.044 98H761.882V12H782.044V98ZM746.34 12V28.8364H714.652V46.0191H743.491V62.8556H714.652V81.2934H746.988V98H695.008V12H746.384H746.34ZM631.803 12L659.175 70.7328L658.57 12H677.825V98H652.353L624.982 39.2672L625.586 98H606.331V12H631.803ZM478.195 46.0191H514.373V63.9809H478.195V46.0191ZM431.914 54.3724H443.613C447.585 54.3724 449.96 53.6366 451.471 52.1218C453.327 50.3905 453.845 47.0146 453.845 41.9074C453.845 35.545 452.852 32.6885 451.125 31.1736C449.399 29.6588 447.024 29.3125 443.182 29.3125H432V54.3724H431.914ZM444.65 12C452.464 12 459.933 13.385 465.416 17.6266C471.028 21.998 474.741 28.9663 474.741 41.5611C474.741 54.156 471.373 61.384 465.545 65.9718C460.321 70.0835 453.37 71.7282 444.175 71.7282H432V98.0433H411.838V12H444.65ZM353.123 51.9054H362.19C371.774 51.9054 376.739 49.7846 376.739 38.9643C376.739 34.8525 376.005 32.4721 374.364 31.0005C372.853 29.6155 370.652 29.2693 366.896 29.2693H353.08V51.9487L353.123 51.9054ZM368.018 12C375.962 12 382.956 13.2552 388.18 16.6311C393.792 20.2667 397.635 25.9799 397.635 36.5838C397.635 48.4429 392.929 57.4021 381.445 60.3885C392.281 62.3795 395.476 72.9834 398.109 98.0433H376.955C373.846 74.8445 372.119 68.8717 364.392 68.8717H353.08V98.0433H332.919V12H367.975H368.018ZM285.429 32.3422L276.103 65.6256H294.754L285.429 32.3422ZM303.561 98.0433L298.942 81.7262H271.7L267.08 98.0433H246.573L273.643 12H297.776L324.759 98H303.604L303.561 98.0433Z" fill="#1D1D1B"/>
</g>
<defs>
<clipPath id="clip0_2_9">
<rect width="160" height="110.81" fill="white"/>
</clipPath>
<clipPath id="clip1_2_9">
<rect width="688" height="86" fill="white" transform="translate(174 12)"/>
</clipPath>
</defs>
</svg>
