<?xml version="1.0" encoding="utf-8"?>
<!-- Generator: Adobe Illustrator 19.2.1, SVG Export Plug-In . SVG Version: 6.00 Build 0)  -->
<svg version="1.1" id="Tracé" xmlns="http://www.w3.org/2000/svg" xmlns:xlink="http://www.w3.org/1999/xlink" x="0px" y="0px"
	 width="276.5px" height="38.6px" viewBox="0 0 276.5 38.6" style="enable-background:new 0 0 276.5 38.6;" xml:space="preserve">
<style type="text/css">
	.st0{fill:#fff;}
	.st1{fill:#fff;}
	.st2{fill:#FFFFFF;}
</style>
<g>
	<g>
		<polygon class="st0" points="82.2,15.7 91.2,8 119.2,8 117.9,15.7 111.9,20.8 116.1,25.9 115.2,31 106.2,38.6 93.4,38.6 
			94.3,33.5 102,33.5 105,31 105.9,25.9 103.8,23.3 96.1,23.3 97,18.2 104.7,18.2 107.7,15.7 108.1,13.1 95.4,13.1 92.4,15.7 
			88.3,38.6 78.1,38.6 		"/>
		<polygon class="st0" points="53.3,15.7 56.3,13.1 69,13.1 68.6,15.8 78.7,15.8 80.1,8 52.1,8 43.1,15.7 39.1,38.6 74.7,38.6 
			75.6,33.5 50.2,33.5 51.1,28.4 76.6,28.4 77.5,23.3 52,23.3 		"/>
		<polygon class="st0" points="37,31 28,38.6 0,38.6 1.5,30.4 24.3,30.4 27.3,27.8 28.3,22.2 2.9,22.2 5.5,7.6 14.4,0 204.7,0 
			203.8,5.1 18.8,5.1 15.5,7.8 13.9,17.1 39.5,17.1 		"/>
	</g>
	<g>
		<polygon class="st1" points="133.2,8 176.5,8 182.8,15.7 178.8,38.6 168.6,38.6 172.6,15.7 170.5,13.1 162.9,13.1 158.4,38.6 
			148.2,38.6 152.7,13.1 142.5,13.1 138,38.6 127.8,38.6 		"/>
		<polygon class="st1" points="209.4,0 276.5,0 275.7,5.1 237,5.1 231.1,38.6 220.9,38.6 226.8,5.1 208.5,5.1 		"/>
		<path class="st1" d="M247.1,8l-9,7.6l-4,22.9h28l9-7.6l4-22.9H247.1z M260.9,31l-3,2.5h-12.7l3.1-17.8l3-2.5H264L260.9,31z"/>
		<path class="st1" d="M195.2,8l-9,7.6l-4,22.9h28l9-7.6l4-22.9L195.2,8z M209,31l-3,2.5h-12.7l3.1-17.8l3-2.5h12.7L209,31z"/>
	</g>
	<line class="st2" x1="221.9" y1="32.5" x2="221.9" y2="32.5"/>
</g>
</svg>
